<svg width="313" height="68" viewBox="0 0 313 68" fill="none" xmlns="http://www.w3.org/2000/svg">
<g clip-path="url(#clip0_197_18)">
<path d="M77.5385 25.9081V30.0814H83.1471V33.15H77.5385V37.4092H84.8615V40.6006H73.375V22.7169H84.8615V25.9081H77.5385ZM98.1664 37.2865V40.6006H87.4147V22.7169H91.5537V37.2865H98.1664ZM104.446 25.9081V30.0814H110.054V33.15H104.446V37.4092H111.769V40.6006H100.282V22.7169H111.769V25.9081H104.446ZM125.988 35.9731C126.086 35.9731 126.184 35.9937 126.282 36.0345C126.38 36.0674 126.474 36.1288 126.564 36.2186L128.205 37.9493C127.486 38.8905 126.584 39.6024 125.498 40.085C124.421 40.5598 123.143 40.7969 121.665 40.7969C120.31 40.7969 119.094 40.5679 118.016 40.1096C116.947 39.6432 116.037 39.0049 115.285 38.1948C114.543 37.3766 113.971 36.4111 113.571 35.298C113.171 34.1771 112.971 32.962 112.971 31.6525C112.971 30.3188 113.187 29.0955 113.62 27.9825C114.053 26.8616 114.661 25.8959 115.445 25.0858C116.228 24.2757 117.167 23.6457 118.261 23.1956C119.355 22.7455 120.559 22.5205 121.874 22.5205C122.543 22.5205 123.172 22.5819 123.759 22.7046C124.355 22.8192 124.911 22.9829 125.425 23.1956C125.939 23.4002 126.413 23.6497 126.845 23.9443C127.278 24.2389 127.662 24.558 127.996 24.9016L126.6 26.7796C126.511 26.8943 126.404 27.0006 126.282 27.0987C126.16 27.1888 125.988 27.2338 125.768 27.2338C125.621 27.2338 125.482 27.2011 125.351 27.1356C125.221 27.0703 125.082 26.9925 124.935 26.9024C124.788 26.8042 124.625 26.702 124.445 26.5955C124.274 26.4811 124.066 26.3787 123.821 26.2886C123.584 26.1904 123.302 26.1087 122.976 26.0432C122.657 25.9779 122.282 25.945 121.849 25.945C121.163 25.945 120.535 26.0719 119.963 26.3255C119.4 26.5793 118.91 26.9515 118.494 27.4424C118.086 27.9253 117.767 28.5226 117.539 29.2345C117.318 29.9383 117.208 30.7442 117.208 31.6525C117.208 32.5692 117.33 33.3832 117.575 34.0951C117.828 34.8071 118.167 35.4085 118.592 35.8995C119.025 36.3823 119.527 36.7506 120.098 37.0042C120.669 37.258 121.282 37.3847 121.935 37.3847C122.31 37.3847 122.653 37.3685 122.963 37.3356C123.274 37.2948 123.563 37.2334 123.833 37.1515C124.102 37.0616 124.355 36.947 124.592 36.8078C124.829 36.6605 125.07 36.4764 125.315 36.2554C125.413 36.1737 125.519 36.1081 125.633 36.059C125.747 36.0018 125.866 35.9731 125.988 35.9731ZM142.833 26.0063H137.812V40.6006H133.673V26.0063H128.652V22.7169H142.833V26.0063ZM150.74 31.1247C151.304 31.1247 151.781 31.0553 152.173 30.9161C152.573 30.7688 152.9 30.5685 153.153 30.3146C153.406 30.061 153.589 29.7665 153.704 29.4309C153.818 29.0872 153.875 28.719 153.875 28.3262C153.875 27.5406 153.618 26.9269 153.104 26.485C152.598 26.0432 151.81 25.8222 150.74 25.8222H149.075V31.1247H150.74ZM159.533 40.6006H155.786C155.092 40.6006 154.594 40.3389 154.292 39.815L151.328 34.6229C151.189 34.402 151.034 34.2424 150.863 34.1442C150.691 34.0379 150.446 33.9847 150.128 33.9847H149.075V40.6006H144.936V22.7169H150.74C152.03 22.7169 153.128 22.8519 154.034 23.122C154.949 23.3838 155.692 23.752 156.263 24.2266C156.843 24.7013 157.263 25.2618 157.524 25.9081C157.786 26.5547 157.916 27.2583 157.916 28.0193C157.916 28.6004 157.839 29.1486 157.684 29.6641C157.529 30.1796 157.3 30.6583 156.998 31.1002C156.696 31.534 156.32 31.9226 155.871 32.2663C155.43 32.6099 154.92 32.8922 154.341 33.1132C154.61 33.2524 154.863 33.4284 155.1 33.641C155.337 33.8457 155.549 34.0912 155.737 34.3774L159.533 40.6006ZM178.233 31.6525C178.233 32.9455 178.008 34.1484 177.559 35.2612C177.118 36.3742 176.494 37.3439 175.686 38.1702C174.877 38.9887 173.902 39.6309 172.759 40.0973C171.624 40.5637 170.363 40.7969 168.975 40.7969C167.587 40.7969 166.322 40.5637 165.179 40.0973C164.036 39.6309 163.056 38.9887 162.24 38.1702C161.432 37.3439 160.803 36.3742 160.354 35.2612C159.913 34.1484 159.693 32.9455 159.693 31.6525C159.693 30.3598 159.913 29.1569 160.354 28.0439C160.803 26.9311 161.432 25.9656 162.24 25.1471C163.056 24.3289 164.036 23.6866 165.179 23.2201C166.322 22.7537 167.587 22.5205 168.975 22.5205C170.363 22.5205 171.624 22.7578 172.759 23.2324C173.902 23.6988 174.877 24.3412 175.686 25.1594C176.494 25.9779 177.118 26.9434 177.559 28.0561C178.008 29.1692 178.233 30.3679 178.233 31.6525ZM173.996 31.6525C173.996 30.7688 173.881 29.9751 173.653 29.2713C173.424 28.5594 173.094 27.958 172.661 27.467C172.236 26.976 171.714 26.5997 171.093 26.3377C170.473 26.076 169.767 25.945 168.975 25.945C168.175 25.945 167.461 26.076 166.832 26.3377C166.212 26.5997 165.685 26.976 165.252 27.467C164.828 27.958 164.501 28.5594 164.273 29.2713C164.044 29.9751 163.93 30.7688 163.93 31.6525C163.93 32.5446 164.044 33.3464 164.273 34.0583C164.501 34.7621 164.828 35.3594 165.252 35.8504C165.685 36.3413 166.212 36.7179 166.832 36.9796C167.461 37.2334 168.175 37.3601 168.975 37.3601C169.767 37.3601 170.473 37.2334 171.093 36.9796C171.714 36.7179 172.236 36.3413 172.661 35.8504C173.094 35.3594 173.424 34.7621 173.653 34.0583C173.881 33.3464 173.996 32.5446 173.996 31.6525ZM196.245 22.7169V40.6006H192.081V33.0395H184.832V40.6006H180.668V22.7169H184.832V30.1919H192.081V22.7169H196.245ZM217.218 31.6525C217.218 32.9455 216.993 34.1484 216.545 35.2612C216.104 36.3742 215.479 37.3439 214.671 38.1702C213.863 38.9887 212.887 39.6309 211.744 40.0973C210.609 40.5637 209.348 40.7969 207.96 40.7969C206.572 40.7969 205.307 40.5637 204.164 40.0973C203.021 39.6309 202.042 38.9887 201.225 38.1702C200.417 37.3439 199.788 36.3742 199.339 35.2612C198.899 34.1484 198.678 32.9455 198.678 31.6525C198.678 30.3598 198.899 29.1569 199.339 28.0439C199.788 26.9311 200.417 25.9656 201.225 25.1471C202.042 24.3289 203.021 23.6866 204.164 23.2201C205.307 22.7537 206.572 22.5205 207.96 22.5205C209.348 22.5205 210.609 22.7578 211.744 23.2324C212.887 23.6988 213.863 24.3412 214.671 25.1594C215.479 25.9779 216.104 26.9434 216.545 28.0561C216.993 29.1692 217.218 30.3679 217.218 31.6525ZM212.981 31.6525C212.981 30.7688 212.867 29.9751 212.638 29.2713C212.409 28.5594 212.079 27.958 211.646 27.467C211.222 26.976 210.699 26.5997 210.079 26.3377C209.458 26.076 208.752 25.945 207.96 25.945C207.16 25.945 206.446 26.076 205.817 26.3377C205.197 26.5997 204.67 26.976 204.238 27.467C203.813 27.958 203.486 28.5594 203.258 29.2713C203.029 29.9751 202.915 30.7688 202.915 31.6525C202.915 32.5446 203.029 33.3464 203.258 34.0583C203.486 34.7621 203.813 35.3594 204.238 35.8504C204.67 36.3413 205.197 36.7179 205.817 36.9796C206.446 37.2334 207.16 37.3601 207.96 37.3601C208.752 37.3601 209.458 37.2334 210.079 36.9796C210.699 36.7179 211.222 36.3413 211.646 35.8504C212.079 35.3594 212.409 34.7621 212.638 34.0583C212.867 33.3464 212.981 32.5446 212.981 31.6525ZM227.099 37.3233C227.654 37.3233 228.148 37.2334 228.581 37.0533C229.022 36.8652 229.393 36.5991 229.695 36.2554C229.997 35.9117 230.226 35.4944 230.381 35.0034C230.544 34.5044 230.626 33.9397 230.626 33.3096V22.7169H234.765V33.3096C234.765 34.4062 234.585 35.4127 234.226 36.3291C233.875 37.2457 233.369 38.0352 232.708 38.698C232.046 39.3608 231.242 39.8764 230.295 40.2446C229.348 40.6128 228.283 40.7969 227.099 40.7969C225.907 40.7969 224.838 40.6128 223.891 40.2446C222.944 39.8764 222.14 39.3608 221.478 38.698C220.817 38.0352 220.311 37.2457 219.96 36.3291C219.609 35.4127 219.433 34.4062 219.433 33.3096V22.7169H223.572V33.2973C223.572 33.9275 223.65 34.4921 223.805 34.9912C223.968 35.4821 224.201 35.9036 224.503 36.2554C224.805 36.5991 225.172 36.8652 225.605 37.0533C226.046 37.2334 226.544 37.3233 227.099 37.3233ZM247.855 26.35C247.733 26.5464 247.603 26.6937 247.463 26.7919C247.333 26.8901 247.162 26.9392 246.949 26.9392C246.763 26.9392 246.557 26.882 246.337 26.7673C246.126 26.6446 245.881 26.5096 245.602 26.3623C245.332 26.215 245.024 26.0841 244.672 25.9695C244.321 25.8468 243.921 25.7854 243.472 25.7854C242.697 25.7854 242.117 25.9533 241.733 26.2886C241.358 26.6161 241.17 27.0619 241.17 27.6265C241.17 27.9867 241.284 28.2854 241.513 28.5226C241.742 28.76 242.039 28.9645 242.407 29.1363C242.782 29.3081 243.207 29.4677 243.68 29.615C244.162 29.7542 244.652 29.9138 245.149 30.0937C245.648 30.2655 246.133 30.4703 246.606 30.7074C247.089 30.9448 247.512 31.2475 247.88 31.6157C248.257 31.9839 248.558 32.4342 248.786 32.9659C249.016 33.4898 249.129 34.1239 249.129 34.8684C249.129 35.695 248.987 36.4683 248.7 37.1883C248.416 37.9085 248 38.5385 247.451 39.0785C246.912 39.6105 246.244 40.032 245.443 40.3428C244.652 40.6457 243.75 40.7969 242.737 40.7969C242.182 40.7969 241.615 40.7397 241.035 40.6251C240.464 40.5107 239.909 40.3511 239.37 40.1464C238.831 39.9338 238.325 39.6842 237.851 39.3977C237.378 39.1114 236.966 38.7923 236.615 38.4403L237.839 36.5009C237.937 36.362 238.064 36.2473 238.219 36.1572C238.382 36.059 238.558 36.0099 238.745 36.0099C238.99 36.0099 239.235 36.0878 239.48 36.2432C239.733 36.3988 240.015 36.5706 240.325 36.7587C240.643 36.947 241.007 37.1188 241.415 37.2742C241.823 37.4298 242.305 37.5074 242.86 37.5074C243.611 37.5074 244.195 37.3439 244.611 37.0164C245.026 36.6811 245.235 36.1533 245.235 35.433C245.235 35.0157 245.122 34.6762 244.893 34.4143C244.664 34.1526 244.362 33.9356 243.986 33.7637C243.619 33.5919 243.199 33.4407 242.725 33.3096C242.252 33.1787 241.766 33.0356 241.268 32.88C240.77 32.7165 240.284 32.5201 239.811 32.2908C239.337 32.0537 238.913 31.7468 238.537 31.3702C238.17 30.9858 237.872 30.511 237.643 29.9464C237.415 29.3737 237.3 28.6699 237.3 27.8352C237.3 27.1643 237.435 26.5096 237.704 25.8713C237.974 25.233 238.37 24.6645 238.892 24.1653C239.415 23.6661 240.056 23.2692 240.815 22.9747C241.574 22.6719 242.443 22.5205 243.423 22.5205C243.97 22.5205 244.501 22.5655 245.014 22.6555C245.538 22.7374 246.031 22.8642 246.496 23.036C246.961 23.1997 247.395 23.4002 247.794 23.6375C248.203 23.8666 248.565 24.1285 248.884 24.423L247.855 26.35ZM255.724 25.9081V30.0814H261.333V33.15H255.724V37.4092H263.047V40.6006H251.561V22.7169H263.047V25.9081H255.724Z" fill="white"/>
<path d="M38.6157 16.9055L43.0695 12.75M34.1619 39.7612L51.9773 23.1389M43.0695 50.15L47.5234 45.9945M53.0908 45.9945C54.5673 45.9945 55.9833 45.4472 57.0274 44.4729C58.0715 43.4988 58.658 42.1776 58.658 40.8001C58.658 39.4224 58.0715 38.1012 57.0274 37.1271C55.9833 36.1528 54.5673 35.6055 53.0908 35.6055C51.6143 35.6055 50.198 36.1528 49.1541 37.1271C48.11 38.1012 47.5234 39.4224 47.5234 40.8001C47.5234 42.1776 48.11 43.4988 49.1541 44.4729C50.198 45.4472 51.6143 45.9945 53.0908 45.9945ZM33.0485 27.2945C34.525 27.2945 35.9411 26.7472 36.9852 25.7729C38.0292 24.7988 38.6157 23.4777 38.6157 22.1C38.6157 20.7223 38.0292 19.4011 36.9852 18.427C35.9411 17.4528 34.525 16.9055 33.0485 16.9055C31.5719 16.9055 30.1559 17.4528 29.1118 18.427C28.0677 19.4011 27.4812 20.7223 27.4812 22.1C27.4812 23.4777 28.0677 24.7988 29.1118 25.7729C30.1559 26.7472 31.5719 27.2945 33.0485 27.2945ZM28.5946 50.15C30.0712 50.15 31.4872 49.6027 32.5313 48.6286C33.5754 47.6545 34.1619 46.3331 34.1619 44.9556C34.1619 43.5779 33.5754 42.2567 32.5313 41.2826C31.4872 40.3084 30.0712 39.7612 28.5946 39.7612C27.1181 39.7612 25.702 40.3084 24.658 41.2826C23.6139 42.2567 23.0273 43.5779 23.0273 44.9556C23.0273 46.3331 23.6139 47.6545 24.658 48.6286C25.702 49.6027 27.1181 50.15 28.5946 50.15ZM57.5444 23.1389C59.0211 23.1389 60.4372 22.5916 61.4813 21.6175C62.5252 20.6433 63.1118 19.3221 63.1118 17.9444C63.1118 16.5668 62.5252 15.2456 61.4813 14.2714C60.4372 13.2973 59.0211 12.75 57.5444 12.75C56.0679 12.75 54.6519 13.2973 53.6078 14.2714C52.5637 15.2456 51.9773 16.5668 51.9773 17.9444C51.9773 19.3221 52.5637 20.6433 53.6078 21.6175C54.6519 22.5916 56.0679 23.1389 57.5444 23.1389Z" stroke="white" stroke-width="2" stroke-linecap="round" stroke-linejoin="round"/>
</g>
<defs>
<clipPath id="clip0_197_18">
<rect width="313" height="68" fill="white"/>
</clipPath>
</defs>
</svg>
