<svg width="198" height="43" viewBox="0 0 198 43" fill="none" xmlns="http://www.w3.org/2000/svg">
<g clip-path="url(#clip0_222_2)">
<path d="M49.0503 16.3834V19.0224H52.5982V20.9628H49.0503V23.6561H53.6827V25.6742H46.4165V14.3654H53.6827V16.3834H49.0503ZM62.0993 23.5785V25.6742H55.2978V14.3654H57.9162V23.5785H62.0993ZM66.0715 16.3834V19.0224H69.6194V20.9628H66.0715V23.6561H70.7039V25.6742H63.4377V14.3654H70.7039V16.3834H66.0715ZM79.6989 22.748C79.7609 22.748 79.8229 22.761 79.8849 22.7868C79.9468 22.8076 80.0062 22.8464 80.063 22.9032L81.1011 23.9976C80.6466 24.5928 80.0759 25.043 79.3891 25.3482C78.7074 25.6484 77.8991 25.7984 76.9644 25.7984C76.1072 25.7984 75.3377 25.6535 74.656 25.3637C73.9794 25.0688 73.4037 24.6652 72.9285 24.1529C72.4586 23.6355 72.097 23.0249 71.844 22.3211C71.591 21.6123 71.4644 20.8439 71.4644 20.0159C71.4644 19.1725 71.6012 18.399 71.875 17.6951C72.1488 16.9863 72.5334 16.3756 73.0292 15.8634C73.525 15.3511 74.1188 14.9527 74.8109 14.6681C75.503 14.3835 76.2646 14.2412 77.0961 14.2412C77.5195 14.2412 77.9172 14.28 78.2891 14.3576C78.666 14.4301 79.0173 14.5336 79.3426 14.6681C79.668 14.7975 79.9674 14.9553 80.2412 15.1416C80.515 15.3279 80.7576 15.5296 80.9694 15.7469L80.0863 16.9345C80.0294 17.007 79.9623 17.0742 79.8849 17.1363C79.8074 17.1932 79.6989 17.2217 79.5595 17.2217C79.4665 17.2217 79.3787 17.201 79.2961 17.1596C79.2135 17.1183 79.1257 17.0691 79.0327 17.0121C78.9398 16.95 78.8364 16.8854 78.7229 16.818C78.6144 16.7457 78.4827 16.681 78.3278 16.624C78.178 16.5619 77.9998 16.5102 77.7933 16.4688C77.5919 16.4275 77.3544 16.4067 77.0806 16.4067C76.6468 16.4067 76.2491 16.4869 75.8877 16.6473C75.5313 16.8078 75.2215 17.0431 74.9581 17.3536C74.6998 17.659 74.4984 18.0366 74.3539 18.4868C74.2144 18.9319 74.1447 19.4415 74.1447 20.0159C74.1447 20.5955 74.2222 21.1103 74.3771 21.5605C74.5372 22.0106 74.7516 22.391 75.0201 22.7014C75.2938 23.0068 75.6114 23.2396 75.9729 23.4C76.3343 23.5605 76.7217 23.6406 77.1349 23.6406C77.3724 23.6406 77.5893 23.6304 77.7856 23.6096C77.9819 23.5838 78.1651 23.545 78.3356 23.4931C78.506 23.4363 78.666 23.3638 78.8158 23.2758C78.9657 23.1827 79.118 23.0662 79.2729 22.9265C79.3349 22.8748 79.4019 22.8334 79.4743 22.8023C79.5466 22.7662 79.6215 22.748 79.6989 22.748ZM90.3545 16.4455H87.1785V25.6742H84.5602V16.4455H81.3841V14.3654H90.3545V16.4455ZM95.3569 19.6821C95.7132 19.6821 96.0153 19.6382 96.2632 19.5502C96.5162 19.457 96.7229 19.3304 96.883 19.1698C97.043 19.0095 97.1592 18.8232 97.2315 18.611C97.3039 18.3937 97.34 18.1608 97.34 17.9124C97.34 17.4157 97.1773 17.0276 96.852 16.7482C96.5317 16.4688 96.0335 16.3291 95.3569 16.3291H94.3034V19.6821H95.3569ZM100.919 25.6742H98.5484C98.1095 25.6742 97.7944 25.5087 97.6034 25.1774L95.7287 21.8942C95.6409 21.7545 95.5428 21.6536 95.4344 21.5915C95.3259 21.5243 95.171 21.4906 94.9696 21.4906H94.3034V25.6742H91.6851V14.3654H95.3569C96.1729 14.3654 96.8675 14.4508 97.4407 14.6215C98.0191 14.7871 98.4891 15.02 98.8506 15.3201C99.2173 15.6203 99.4831 15.9747 99.6484 16.3834C99.8138 16.7923 99.8963 17.2372 99.8963 17.7184C99.8963 18.0858 99.8472 18.4325 99.7491 18.7585C99.6511 19.0845 99.5064 19.3872 99.3153 19.6666C99.1243 19.9409 98.8867 20.1866 98.6027 20.404C98.3238 20.6213 98.0011 20.7998 97.6344 20.9395C97.8048 21.0275 97.9648 21.1388 98.1146 21.2733C98.2645 21.4027 98.3986 21.558 98.5175 21.739L100.919 25.6742ZM112.748 20.0159C112.748 20.8335 112.606 21.5941 112.322 22.2978C112.043 23.0017 111.648 23.6148 111.137 24.1374C110.626 24.6549 110.009 25.061 109.286 25.3559C108.568 25.6509 107.77 25.7984 106.892 25.7984C106.014 25.7984 105.214 25.6509 104.49 25.3559C103.767 25.061 103.148 24.6549 102.631 24.1374C102.12 23.6148 101.722 23.0017 101.438 22.2978C101.159 21.5941 101.02 20.8335 101.02 20.0159C101.02 19.1984 101.159 18.4378 101.438 17.7339C101.722 17.0302 102.12 16.4197 102.631 15.9022C103.148 15.3848 103.767 14.9786 104.49 14.6836C105.214 14.3887 106.014 14.2412 106.892 14.2412C107.77 14.2412 108.568 14.3913 109.286 14.6914C110.009 14.9863 110.626 15.3925 111.137 15.9099C111.648 16.4275 112.043 17.038 112.322 17.7417C112.606 18.4455 112.748 19.2035 112.748 20.0159ZM110.068 20.0159C110.068 19.457 109.996 18.9552 109.851 18.5101C109.706 18.0599 109.497 17.6796 109.224 17.3691C108.955 17.0587 108.624 16.8207 108.232 16.655C107.84 16.4896 107.393 16.4067 106.892 16.4067C106.386 16.4067 105.934 16.4896 105.536 16.655C105.144 16.8207 104.811 17.0587 104.537 17.3691C104.268 17.6796 104.062 18.0599 103.917 18.5101C103.773 18.9552 103.7 19.457 103.7 20.0159C103.7 20.58 103.773 21.087 103.917 21.5372C104.062 21.9822 104.268 22.3599 104.537 22.6704C104.811 22.9809 105.144 23.219 105.536 23.3845C105.934 23.545 106.386 23.6251 106.892 23.6251C107.393 23.6251 107.84 23.545 108.232 23.3845C108.624 23.219 108.955 22.9809 109.224 22.6704C109.497 22.3599 109.706 21.9822 109.851 21.5372C109.996 21.087 110.068 20.58 110.068 20.0159ZM124.143 14.3654V25.6742H121.509V20.893H116.923V25.6742H114.289V14.3654H116.923V19.0922H121.509V14.3654H124.143ZM137.41 20.0159C137.41 20.8335 137.268 21.5941 136.984 22.2978C136.705 23.0017 136.31 23.6148 135.799 24.1374C135.287 24.6549 134.67 25.061 133.947 25.3559C133.229 25.6509 132.431 25.7984 131.554 25.7984C130.676 25.7984 129.875 25.6509 129.152 25.3559C128.429 25.061 127.809 24.6549 127.293 24.1374C126.782 23.6148 126.384 23.0017 126.1 22.2978C125.821 21.5941 125.682 20.8335 125.682 20.0159C125.682 19.1984 125.821 18.4378 126.1 17.7339C126.384 17.0302 126.782 16.4197 127.293 15.9022C127.809 15.3848 128.429 14.9786 129.152 14.6836C129.875 14.3887 130.676 14.2412 131.554 14.2412C132.431 14.2412 133.229 14.3913 133.947 14.6914C134.67 14.9863 135.287 15.3925 135.799 15.9099C136.31 16.4275 136.705 17.038 136.984 17.7417C137.268 18.4455 137.41 19.2035 137.41 20.0159ZM134.73 20.0159C134.73 19.457 134.657 18.9552 134.513 18.5101C134.368 18.0599 134.159 17.6796 133.885 17.3691C133.617 17.0587 133.286 16.8207 132.894 16.655C132.501 16.4896 132.054 16.4067 131.554 16.4067C131.047 16.4067 130.595 16.4896 130.198 16.655C129.805 16.8207 129.472 17.0587 129.199 17.3691C128.93 17.6796 128.723 18.0599 128.579 18.5101C128.434 18.9552 128.362 19.457 128.362 20.0159C128.362 20.58 128.434 21.087 128.579 21.5372C128.723 21.9822 128.93 22.3599 129.199 22.6704C129.472 22.9809 129.805 23.219 130.198 23.3845C130.595 23.545 131.047 23.6251 131.554 23.6251C132.054 23.6251 132.501 23.545 132.894 23.3845C133.286 23.219 133.617 22.9809 133.885 22.6704C134.159 22.3599 134.368 21.9822 134.513 21.5372C134.657 21.087 134.73 20.58 134.73 20.0159ZM143.661 23.6018C144.012 23.6018 144.324 23.545 144.598 23.431C144.877 23.3121 145.112 23.1439 145.303 22.9265C145.494 22.7092 145.639 22.4453 145.737 22.1348C145.84 21.8192 145.892 21.4622 145.892 21.0637V14.3654H148.51V21.0637C148.51 21.7571 148.396 22.3936 148.169 22.9731C147.947 23.5527 147.627 24.052 147.208 24.4711C146.79 24.8902 146.281 25.2162 145.682 25.4491C145.083 25.6819 144.409 25.7984 143.661 25.7984C142.906 25.7984 142.23 25.6819 141.631 25.4491C141.032 25.2162 140.523 24.8902 140.105 24.4711C139.687 24.052 139.366 23.5527 139.144 22.9731C138.922 22.3936 138.811 21.7571 138.811 21.0637V14.3654H141.43V21.056C141.43 21.4544 141.479 21.8115 141.577 22.1271C141.68 22.4375 141.827 22.7041 142.018 22.9265C142.209 23.1439 142.442 23.3121 142.715 23.431C142.994 23.545 143.309 23.6018 143.661 23.6018ZM156.791 16.6628C156.713 16.787 156.631 16.8801 156.543 16.9422C156.46 17.0043 156.352 17.0354 156.217 17.0354C156.1 17.0354 155.969 16.9992 155.83 16.9267C155.697 16.8491 155.542 16.7637 155.365 16.6706C155.195 16.5774 155 16.4947 154.777 16.4222C154.555 16.3446 154.302 16.3058 154.018 16.3058C153.527 16.3058 153.161 16.4119 152.918 16.624C152.68 16.8311 152.562 17.113 152.562 17.47C152.562 17.6978 152.634 17.8867 152.778 18.0366C152.923 18.1867 153.112 18.3161 153.344 18.4247C153.582 18.5334 153.85 18.6343 154.15 18.7274C154.454 18.8154 154.764 18.9164 155.079 19.0301C155.395 19.1388 155.701 19.2683 156 19.4182C156.306 19.5683 156.574 19.7597 156.806 19.9926C157.045 20.2254 157.235 20.5101 157.379 20.8464C157.525 21.1777 157.596 21.5786 157.596 22.0495C157.596 22.5721 157.506 23.0611 157.325 23.5164C157.145 23.9719 156.882 24.3702 156.535 24.7117C156.194 25.0481 155.771 25.3147 155.264 25.5112C154.764 25.7027 154.194 25.7984 153.553 25.7984C153.202 25.7984 152.843 25.7622 152.476 25.6897C152.115 25.6174 151.764 25.5165 151.423 25.387C151.082 25.2526 150.762 25.0947 150.462 24.9135C150.163 24.7325 149.902 24.5307 149.68 24.3081L150.455 23.0818C150.516 22.9939 150.597 22.9214 150.695 22.8644C150.798 22.8023 150.909 22.7713 151.028 22.7713C151.183 22.7713 151.338 22.8205 151.493 22.9188C151.653 23.0172 151.831 23.1259 152.027 23.2448C152.228 23.3638 152.458 23.4725 152.716 23.5708C152.975 23.6692 153.279 23.7182 153.631 23.7182C154.106 23.7182 154.475 23.6148 154.738 23.4078C155.001 23.1957 155.133 22.8619 155.133 22.4065C155.133 22.1426 155.061 21.9279 154.916 21.7623C154.772 21.5968 154.581 21.4596 154.343 21.3509C154.111 21.2422 153.845 21.1466 153.545 21.0637C153.246 20.981 152.939 20.8905 152.624 20.7921C152.309 20.6887 152.001 20.5645 151.702 20.4195C151.402 20.2695 151.134 20.0755 150.896 19.8374C150.664 19.5943 150.475 19.294 150.331 18.937C150.186 18.5748 150.114 18.1298 150.114 17.602C150.114 17.1777 150.199 16.7637 150.369 16.3601C150.54 15.9565 150.79 15.597 151.121 15.2813C151.451 14.9656 151.857 14.7147 152.337 14.5284C152.817 14.3369 153.367 14.2412 153.987 14.2412C154.333 14.2412 154.669 14.2697 154.993 14.3266C155.325 14.3783 155.636 14.4585 155.931 14.5672C156.225 14.6707 156.499 14.7975 156.752 14.9475C157.011 15.0924 157.24 15.258 157.441 15.4443L156.791 16.6628ZM161.768 16.3834V19.0224H165.316V20.9628H161.768V23.6561H166.401V25.6742H159.135V14.3654H166.401V16.3834H161.768Z" fill="url(#paint0_linear_222_2)"/>
<path d="M24.4279 10.6903L27.2453 8.0625M21.6105 25.1431L32.8803 14.6319M27.2453 31.7125L30.0628 29.0848M33.5847 29.0848C34.5187 29.0848 35.4145 28.7387 36.0749 28.1226C36.7354 27.5066 37.1064 26.6712 37.1064 25.8001C37.1064 24.9288 36.7354 24.0934 36.0749 23.4774C35.4145 22.8613 34.5187 22.5152 33.5847 22.5152C32.6506 22.5152 31.7547 22.8613 31.0944 23.4774C30.4339 24.0934 30.0628 24.9288 30.0628 25.8001C30.0628 26.6712 30.4339 27.5066 31.0944 28.1226C31.7547 28.7387 32.6506 29.0848 33.5847 29.0848ZM20.9061 17.2598C21.8402 17.2598 22.736 16.9137 23.3964 16.2976C24.0569 15.6816 24.4279 14.8462 24.4279 13.975C24.4279 13.1038 24.0569 12.2684 23.3964 11.6523C22.736 11.0363 21.8402 10.6903 20.9061 10.6903C19.9721 10.6903 19.0763 11.0363 18.4158 11.6523C17.7554 12.2684 17.3843 13.1038 17.3843 13.975C17.3843 14.8462 17.7554 15.6816 18.4158 16.2976C19.0763 16.9137 19.9721 17.2598 20.9061 17.2598ZM18.0887 31.7125C19.0227 31.7125 19.9185 31.3664 20.579 30.7504C21.2394 30.1345 21.6105 29.2989 21.6105 28.4278C21.6105 27.5566 21.2394 26.7211 20.579 26.1051C19.9185 25.4892 19.0227 25.1431 18.0887 25.1431C17.1546 25.1431 16.2589 25.4892 15.5984 26.1051C14.9379 26.7211 14.5669 27.5566 14.5669 28.4278C14.5669 29.2989 14.9379 30.1345 15.5984 30.7504C16.2589 31.3664 17.1546 31.7125 18.0887 31.7125ZM36.402 14.6319C37.3361 14.6319 38.2319 14.2859 38.8924 13.6699C39.5528 13.0539 39.9238 12.2184 39.9238 11.3472C39.9238 10.4761 39.5528 9.64058 38.8924 9.02457C38.2319 8.40857 37.3361 8.0625 36.402 8.0625C35.468 8.0625 34.5722 8.40857 33.9117 9.02457C33.2512 9.64058 32.8803 10.4761 32.8803 11.3472C32.8803 12.2184 33.2512 13.0539 33.9117 13.6699C34.5722 14.2859 35.468 14.6319 36.402 14.6319Z" stroke="url(#paint1_linear_222_2)" stroke-width="2" stroke-linecap="round" stroke-linejoin="round"/>
</g>
<defs>
<linearGradient id="paint0_linear_222_2" x1="50.1855" y1="32.5168" x2="210.799" y2="32.5168" gradientUnits="userSpaceOnUse">
<stop offset="0.448165" stop-color="#000E8D"/>
<stop offset="1" stop-color="#FF40EC"/>
</linearGradient>
<linearGradient id="paint1_linear_222_2" x1="27.2453" y1="8.0625" x2="27.2453" y2="31.7125" gradientUnits="userSpaceOnUse">
<stop stop-color="#000E8D"/>
<stop offset="1" stop-color="#F32DDF"/>
</linearGradient>
<clipPath id="clip0_222_2">
<rect width="198" height="43" fill="white"/>
</clipPath>
</defs>
</svg>
