<svg width="19" height="19" viewBox="0 0 19 19" fill="none" xmlns="http://www.w3.org/2000/svg">
<g clip-path="url(#clip0_400_2)">
<path d="M19 9.4905C19 4.25125 14.744 0 9.5 0C4.256 0 0 4.25125 0 9.4905C0 12.3761 1.311 14.9767 3.363 16.7224C3.382 16.7414 3.401 16.7414 3.401 16.7604C3.572 16.8934 3.743 17.0264 3.933 17.1594C4.028 17.2164 4.104 17.2912 4.199 17.3672C5.76896 18.4316 7.62222 19.0004 9.519 19C11.4158 19.0004 13.269 18.4316 14.839 17.3672C14.934 17.3102 15.01 17.2354 15.105 17.1772C15.276 17.0454 15.466 16.9124 15.637 16.7794C15.656 16.7604 15.675 16.7604 15.675 16.7414C17.689 14.9756 19 12.3761 19 9.4905ZM9.5 17.8042C7.714 17.8042 6.08 17.2342 4.731 16.2854C4.75 16.1334 4.788 15.9826 4.826 15.8306C4.93921 15.4186 5.10526 15.0231 5.32 14.6538C5.529 14.2928 5.776 13.9698 6.08 13.6848C6.365 13.3998 6.707 13.1349 7.049 12.9259C7.41 12.7169 7.79 12.5649 8.208 12.4509C8.62925 12.3374 9.06372 12.2803 9.5 12.2811C10.7951 12.272 12.0427 12.7688 12.977 13.6658C13.414 14.1028 13.756 14.6158 14.003 15.2036C14.136 15.5456 14.231 15.9066 14.288 16.2854C12.8858 17.2712 11.2141 17.8015 9.5 17.8042ZM6.593 9.01669C6.42559 8.63339 6.3414 8.21893 6.346 7.80069C6.346 7.38387 6.422 6.96587 6.593 6.58588C6.764 6.20588 6.992 5.86506 7.277 5.58006C7.562 5.29506 7.904 5.06825 8.284 4.89725C8.664 4.72625 9.082 4.65025 9.5 4.65025C9.937 4.65025 10.336 4.72625 10.716 4.89725C11.096 5.06825 11.438 5.29625 11.723 5.58006C12.008 5.86506 12.236 6.20706 12.407 6.58588C12.578 6.96587 12.654 7.38387 12.654 7.80069C12.654 8.23769 12.578 8.63669 12.407 9.0155C12.242 9.38988 12.0102 9.7311 11.723 10.0225C11.4315 10.3093 11.0903 10.5406 10.716 10.7053C9.93086 11.028 9.05014 11.028 8.265 10.7053C7.89071 10.5406 7.5495 10.3093 7.258 10.0225C6.9704 9.73535 6.74416 9.39394 6.593 9.01669ZM15.409 15.3176C15.409 15.2796 15.39 15.2606 15.39 15.2226C15.2031 14.6281 14.9277 14.0653 14.573 13.5529C14.218 13.0368 13.7816 12.5817 13.281 12.2051C12.8987 11.9175 12.4842 11.6752 12.046 11.4831C12.2454 11.3516 12.4301 11.1991 12.597 11.0283C12.8803 10.7487 13.129 10.4361 13.338 10.0973C13.7588 9.40596 13.9761 8.60996 13.965 7.80069C13.9709 7.20161 13.8545 6.60763 13.623 6.05506C13.3944 5.52263 13.0654 5.03922 12.654 4.63125C12.2432 4.22754 11.7597 3.9052 11.229 3.68125C10.6755 3.45015 10.0808 3.33419 9.481 3.34044C8.88116 3.33457 8.2864 3.45094 7.733 3.68244C7.19774 3.90591 6.71307 4.23508 6.308 4.65025C5.9043 5.06063 5.58196 5.54375 5.358 6.07406C5.1265 6.62663 5.01012 7.22061 5.016 7.81969C5.016 8.23769 5.073 8.63669 5.187 9.0155C5.301 9.4145 5.453 9.7755 5.662 10.1163C5.852 10.4583 6.118 10.7623 6.403 11.0473C6.574 11.2183 6.764 11.3691 6.973 11.5021C6.53343 11.6993 6.11885 11.9481 5.738 12.2431C5.244 12.6231 4.807 13.0779 4.446 13.5719C4.08768 14.0821 3.81197 14.6456 3.629 15.2416C3.61 15.2796 3.61 15.3176 3.61 15.3366C2.109 13.8177 1.178 11.7681 1.178 9.4905C1.178 4.91625 4.921 1.17681 9.5 1.17681C14.079 1.17681 17.822 4.91625 17.822 9.4905C17.8195 11.6754 16.9519 13.7705 15.409 15.3176Z" fill="#FEFEFE"/>
</g>
<defs>
<clipPath id="clip0_400_2">
<rect width="19" height="19" fill="white"/>
</clipPath>
</defs>
</svg>
