<svg width="16" height="16" viewBox="0 0 16 16" fill="none" xmlns="http://www.w3.org/2000/svg">
<g clip-path="url(#clip0_386_2)">
<path d="M2 5V15C2 15.55 2.45 16 3 16H12C12.55 16 13 15.55 13 15V5H2ZM5 14H4V7H5V14ZM7 14H6V7H7V14ZM9 14H8V7H9V14ZM11 14H10V7H11V14ZM13.25 2H10V0.75C9.99921 0.551331 9.91994 0.361024 9.77946 0.220543C9.63898 0.0800612 9.44867 0.000789946 9.25 0L5.75 0C5.55133 0.000789946 5.36102 0.0800612 5.22054 0.220543C5.08006 0.361024 5.00079 0.551331 5 0.75V2H1.75C1.55125 2.00053 1.36079 2.07971 1.22025 2.22025C1.07971 2.36079 1.00053 2.55125 1 2.75V4H14V2.75C13.9995 2.55125 13.9203 2.36079 13.7797 2.22025C13.6392 2.07971 13.4488 2.00053 13.25 2ZM9 2H6V1.013H9V2Z" fill="white"/>
</g>
<defs>
<clipPath id="clip0_386_2">
<rect width="16" height="16" fill="white"/>
</clipPath>
</defs>
</svg>
