<svg width="21" height="22" viewBox="0 0 21 22" fill="none" xmlns="http://www.w3.org/2000/svg">
<g clip-path="url(#clip0_400_4)">
<path d="M6.77484 0C6.3602 0 5.96254 0.164717 5.66934 0.457915C5.37614 0.751113 5.21143 1.14877 5.21143 1.56342V2.6057C5.21143 3.02034 5.37614 3.418 5.66934 3.7112C5.96254 4.0044 6.3602 4.16912 6.77484 4.16912H9.90168C10.3163 4.16912 10.714 4.0044 11.0072 3.7112C11.3004 3.418 11.4651 3.02034 11.4651 2.6057V1.56342C11.4651 1.14877 11.3004 0.751113 11.0072 0.457915C10.714 0.164717 10.3163 0 9.90168 0L6.77484 0ZM9.90168 1.04228C10.0399 1.04228 10.1725 1.09718 10.2702 1.19492C10.3679 1.29265 10.4228 1.4252 10.4228 1.56342V2.6057C10.4228 2.74391 10.3679 2.87647 10.2702 2.9742C10.1725 3.07193 10.0399 3.12684 9.90168 3.12684H6.77484C6.63663 3.12684 6.50408 3.07193 6.40634 2.9742C6.30861 2.87647 6.25371 2.74391 6.25371 2.6057V1.56342C6.25371 1.4252 6.30861 1.29265 6.40634 1.19492C6.50408 1.09718 6.63663 1.04228 6.77484 1.04228H9.90168Z" fill="white"/>
<path d="M4.16907 1.56348H3.1268C2.57394 1.56348 2.04372 1.7831 1.65279 2.17403C1.26186 2.56496 1.04224 3.09518 1.04224 3.64804V14.592C1.04224 15.1448 1.26186 15.675 1.65279 16.066C2.04372 16.4569 2.57394 16.6765 3.1268 16.6765H13.5496C14.1024 16.6765 14.6327 16.4569 15.0236 16.066C15.4145 15.675 15.6341 15.1448 15.6341 14.592V3.64804C15.6341 3.09518 15.4145 2.56496 15.0236 2.17403C14.6327 1.7831 14.1024 1.56348 13.5496 1.56348H12.5073V2.60576C12.5073 2.94794 12.4399 3.28678 12.309 3.60291C12.178 3.91905 11.9861 4.2063 11.7441 4.44826C11.5022 4.69022 11.2149 4.88216 10.8988 5.01311C10.5826 5.14406 10.2438 5.21145 9.90161 5.21145H6.77477C6.0837 5.21145 5.42093 4.93693 4.93227 4.44826C4.4436 3.9596 4.16907 3.29683 4.16907 2.60576V1.56348ZM10.4228 8.33829C10.4228 8.06186 10.5326 7.79676 10.728 7.60129C10.9235 7.40582 11.1886 7.29601 11.465 7.29601C11.7415 7.29601 12.0066 7.40582 12.202 7.60129C12.3975 7.79676 12.5073 8.06186 12.5073 8.33829V13.5497C12.5073 13.8261 12.3975 14.0912 12.202 14.2867C12.0066 14.4822 11.7415 14.592 11.465 14.592C11.1886 14.592 10.9235 14.4822 10.728 14.2867C10.5326 14.0912 10.4228 13.8261 10.4228 13.5497V8.33829ZM4.16907 12.5074C4.16907 12.231 4.27889 11.9659 4.47435 11.7704C4.66982 11.5749 4.93492 11.4651 5.21135 11.4651C5.48778 11.4651 5.75289 11.5749 5.94836 11.7704C6.14382 11.9659 6.25363 12.231 6.25363 12.5074V13.5497C6.25363 13.8261 6.14382 14.0912 5.94836 14.2867C5.75289 14.4822 5.48778 14.592 5.21135 14.592C4.93492 14.592 4.66982 14.4822 4.47435 14.2867C4.27889 14.0912 4.16907 13.8261 4.16907 13.5497V12.5074ZM8.33819 9.38057C8.61462 9.38057 8.87973 9.49038 9.07519 9.68585C9.27066 9.88131 9.38047 10.1464 9.38047 10.4229V13.5497C9.38047 13.8261 9.27066 14.0912 9.07519 14.2867C8.87973 14.4822 8.61462 14.592 8.33819 14.592C8.06176 14.592 7.79665 14.4822 7.60119 14.2867C7.40572 14.0912 7.29591 13.8261 7.29591 13.5497V10.4229C7.29591 10.1464 7.40572 9.88131 7.60119 9.68585C7.79665 9.49038 8.06176 9.38057 8.33819 9.38057Z" fill="white"/>
</g>
<g clip-path="url(#clip1_400_4)">
<path d="M17.0624 17.0454C16.7733 17.1179 16.5991 17.3214 16.5991 17.5134C16.5991 17.7053 16.7733 17.9088 17.0624 17.981V17.0454ZM17.5256 18.4611V19.3965C17.8147 19.3243 17.9888 19.1207 17.9888 18.9288C17.9888 18.7369 17.8147 18.5333 17.5256 18.4611Z" fill="white"/>
<path fill-rule="evenodd" clip-rule="evenodd" d="M20.3823 18.221C20.3823 19.7845 18.9997 21.0519 17.294 21.0519C15.5884 21.0519 14.2058 19.7845 14.2058 18.221C14.2058 16.6575 15.5884 15.3901 17.294 15.3901C18.9997 15.3901 20.3823 16.6575 20.3823 18.221ZM17.294 16.3102C17.3555 16.3102 17.4144 16.3325 17.4578 16.3724C17.5013 16.4122 17.5257 16.4662 17.5257 16.5225V16.6122C18.029 16.6949 18.4521 17.0417 18.4521 17.5133C18.4521 17.5696 18.4277 17.6236 18.3843 17.6634C18.3409 17.7032 18.2819 17.7256 18.2205 17.7256C18.1591 17.7256 18.1002 17.7032 18.0567 17.6634C18.0133 17.6236 17.9889 17.5696 17.9889 17.5133C17.9889 17.3214 17.8147 17.1178 17.5257 17.0454V18.0277C18.029 18.1103 18.4521 18.4571 18.4521 18.9287C18.4521 19.4004 18.029 19.7471 17.5257 19.8298V19.9195C17.5257 19.9759 17.5013 20.0299 17.4578 20.0697C17.4144 20.1095 17.3555 20.1319 17.294 20.1319C17.2326 20.1319 17.1737 20.1095 17.1303 20.0697C17.0868 20.0299 17.0624 19.9759 17.0624 19.9195V19.8298C16.559 19.7471 16.136 19.4004 16.136 18.9287C16.136 18.8724 16.1604 18.8184 16.2038 18.7786C16.2472 18.7388 16.3061 18.7164 16.3676 18.7164C16.429 18.7164 16.4879 18.7388 16.5314 18.7786C16.5748 18.8184 16.5992 18.8724 16.5992 18.9287C16.5992 19.1207 16.7734 19.3242 17.0624 19.3964V18.4144C16.559 18.3317 16.136 17.9849 16.136 17.5133C16.136 17.0417 16.559 16.6949 17.0624 16.6122V16.5225C17.0624 16.4662 17.0868 16.4122 17.1303 16.3724C17.1737 16.3325 17.2326 16.3102 17.294 16.3102Z" fill="white"/>
</g>
<defs>
<clipPath id="clip0_400_4">
<rect width="16.6765" height="16.6765" fill="white"/>
</clipPath>
<clipPath id="clip1_400_4">
<rect width="7.41176" height="6.79412" fill="white" transform="translate(13.5881 14.8237)"/>
</clipPath>
</defs>
</svg>
